<?xml version="1.0" standalone="no"?>
<!DOCTYPE svg PUBLIC "-//W3C//DTD SVG 20010904//EN"
 "http://www.w3.org/TR/2001/REC-SVG-20010904/DTD/svg10.dtd">
<svg version="1.0" xmlns="http://www.w3.org/2000/svg"
 width="757.000000pt" height="541.000000pt" viewBox="0 0 757.000000 541.000000"
 preserveAspectRatio="xMidYMid meet">

<g transform="translate(0.000000,541.000000) scale(0.100000,-0.100000)"
fill="#000000" stroke="none">
<path d="M681 5169 c-176 -34 -338 -199 -371 -378 -14 -74 -14 -4058 0 -4132
15 -81 72 -188 131 -248 60 -59 167 -116 248 -131 74 -14 5948 -14 6022 0 81
15 188 72 248 131 59 60 116 167 131 248 14 74 14 4058 0 4132 -15 82 -71 187
-132 247 -61 61 -166 117 -247 132 -67 13 -5966 12 -6030 -1z m3169 -351 l-1
-198 218 -2 218 -3 3 -182 2 -183 -220 0 -220 0 0 -812 c0 -447 3 -823 6 -835
4 -14 14 -23 25 -23 11 0 19 -4 19 -9 0 -5 12 -14 28 -20 26 -10 82 -41 92
-51 9 -9 85 -51 103 -57 9 -3 17 -9 17 -14 0 -5 9 -9 19 -9 11 0 21 -3 23 -7
6 -14 87 -63 103 -63 8 0 15 -4 15 -10 0 -5 4 -10 9 -10 5 0 44 -20 85 -45 42
-25 79 -45 81 -45 3 0 29 -16 59 -35 30 -19 60 -35 66 -35 5 0 10 -4 10 -10 0
-5 7 -10 17 -10 9 0 31 -11 49 -25 18 -14 37 -25 43 -25 6 0 11 -4 11 -10 0
-5 9 -10 20 -10 11 0 20 -4 20 -10 0 -5 7 -10 16 -10 8 0 30 -11 48 -25 18
-14 38 -25 44 -25 7 0 12 -4 12 -10 0 -5 5 -10 10 -10 6 0 34 -15 63 -33 29
-18 66 -39 82 -47 17 -8 42 -22 56 -31 14 -10 50 -30 80 -46 30 -16 67 -37 83
-48 l29 -19 23 29 c12 15 31 46 41 67 10 21 21 38 26 38 4 0 7 7 7 15 0 8 8
24 18 35 14 18 75 122 114 197 14 28 51 29 93 3 41 -26 72 -43 125 -71 100
-53 127 -83 97 -108 -8 -6 -25 -32 -38 -58 -13 -27 -38 -68 -54 -93 -17 -25
-37 -58 -45 -75 -8 -16 -23 -43 -35 -60 -33 -49 -48 -83 -42 -98 3 -8 35 -29
71 -47 36 -19 66 -36 66 -39 0 -3 15 -13 33 -20 17 -8 55 -29 82 -46 28 -17
58 -34 68 -38 18 -7 25 -67 7 -67 -5 0 -10 -6 -11 -12 0 -7 -14 -33 -29 -58
-16 -25 -38 -63 -49 -85 -11 -22 -29 -49 -40 -59 -18 -16 -22 -17 -48 -3 -15
8 -49 26 -75 39 -26 14 -53 29 -60 35 -7 6 -44 27 -83 48 -38 21 -80 44 -92
52 -20 14 -23 12 -45 -24 -13 -21 -30 -51 -38 -68 -8 -16 -25 -44 -37 -61 -13
-17 -23 -36 -23 -42 0 -7 -4 -12 -10 -12 -5 0 -10 -9 -10 -20 0 -11 -4 -20 -9
-20 -5 0 -17 -13 -25 -30 -9 -17 -23 -44 -32 -60 -8 -16 -18 -30 -21 -30 -6 0
-66 33 -73 40 -5 5 -99 56 -137 74 -13 6 -23 14 -23 19 0 4 -6 7 -12 7 -7 0
-23 8 -36 18 l-22 17 26 53 c14 28 29 52 32 52 4 0 13 15 21 33 8 17 24 45 35
62 12 16 30 48 42 70 11 22 31 57 43 79 12 21 21 39 19 40 -2 2 -19 10 -38 20
-19 9 -53 28 -75 42 -22 13 -49 29 -60 34 -11 6 -36 20 -55 32 -40 24 -120 70
-167 95 -18 9 -33 20 -33 25 0 4 -6 8 -14 8 -17 0 -51 17 -93 48 -17 12 -36
22 -42 22 -6 0 -11 5 -11 10 0 6 -9 10 -20 10 -11 0 -20 5 -20 10 0 6 -5 10
-10 10 -6 0 -29 12 -53 27 -23 14 -67 40 -97 56 -30 16 -62 35 -70 41 -8 7
-28 18 -45 26 -16 8 -54 29 -83 47 -29 18 -54 33 -57 33 -3 0 -29 16 -59 35
-30 19 -60 35 -66 35 -5 0 -10 5 -10 10 0 6 -9 10 -20 10 -11 0 -20 3 -20 8 0
4 -18 16 -40 26 -22 11 -40 23 -40 28 0 4 -9 8 -20 8 -11 0 -20 5 -20 10 0 6
-9 10 -20 10 -11 0 -20 4 -20 8 0 5 -18 17 -40 27 -37 17 -41 17 -58 2 -10
-10 -24 -17 -30 -17 -7 0 -12 -4 -12 -9 0 -5 -8 -11 -17 -14 -10 -4 -36 -17
-58 -31 -22 -14 -56 -33 -75 -43 -19 -9 -37 -20 -40 -23 -3 -4 -12 -10 -20
-13 -8 -4 -31 -17 -50 -29 -40 -24 -120 -69 -167 -94 -18 -9 -33 -20 -33 -25
0 -5 -9 -9 -20 -9 -11 0 -20 -4 -20 -9 0 -5 -12 -14 -27 -20 -27 -10 -83 -41
-93 -51 -10 -10 -45 -30 -82 -47 -21 -10 -38 -21 -38 -25 0 -5 -9 -8 -20 -8
-11 0 -20 -4 -20 -10 0 -5 -5 -10 -12 -10 -6 0 -19 -6 -27 -14 -9 -7 -41 -27
-71 -43 -95 -52 -120 -68 -120 -75 0 -5 -9 -8 -20 -8 -11 0 -20 -4 -20 -9 0
-5 -8 -11 -17 -14 -20 -6 -95 -49 -103 -58 -3 -3 -12 -8 -20 -12 -8 -4 -33
-18 -55 -31 -22 -14 -59 -35 -82 -46 -38 -18 -59 -50 -34 -50 5 0 16 -15 25
-32 38 -74 78 -144 90 -158 7 -8 19 -30 27 -47 8 -18 17 -33 21 -33 5 0 8 -5
8 -12 0 -6 11 -26 25 -44 14 -18 25 -42 25 -53 0 -25 -29 -61 -50 -61 -8 0
-26 -9 -40 -20 -14 -11 -31 -20 -37 -20 -7 0 -13 -4 -13 -9 0 -5 -8 -11 -17
-15 -17 -5 -29 -12 -85 -48 -30 -20 -58 -23 -58 -7 0 6 -10 25 -22 42 -30 42
-57 88 -64 109 -4 10 -10 18 -15 18 -5 0 -9 9 -9 20 0 10 -6 23 -13 27 -8 4
-16 15 -20 23 -4 8 -18 33 -31 55 -14 22 -33 55 -42 73 -15 30 -54 46 -54 22
0 -6 -10 -15 -22 -20 -13 -6 -50 -26 -83 -45 -33 -19 -69 -39 -80 -45 -11 -5
-38 -21 -60 -35 -22 -14 -46 -28 -53 -31 -25 -12 -57 6 -77 43 -11 21 -30 52
-42 69 -13 17 -23 36 -23 42 0 6 -3 12 -7 14 -12 5 -43 64 -43 82 0 14 47 55
80 70 8 3 33 17 55 31 22 14 56 32 75 42 19 9 49 27 66 40 17 13 36 23 41 23
6 0 16 6 22 14 13 15 5 33 -47 108 -17 26 -32 50 -32 54 0 4 -6 15 -14 23 -7
9 -24 36 -37 61 -13 25 -34 59 -46 76 -33 45 -29 94 8 94 10 0 19 4 19 8 0 5
15 16 33 26 68 36 114 62 150 84 21 13 44 21 52 18 8 -3 27 -24 42 -48 15 -24
31 -44 36 -46 4 -2 7 -12 7 -23 0 -10 5 -19 10 -19 6 0 10 -4 10 -10 0 -8 29
-59 78 -135 6 -11 20 -35 29 -52 9 -18 20 -33 24 -33 8 0 73 41 96 60 7 5 19
10 28 10 8 0 15 4 15 8 0 4 27 21 60 37 33 17 60 33 60 38 0 4 4 7 10 7 5 0
34 16 64 35 30 19 62 35 71 35 8 0 15 5 15 10 0 6 5 10 12 10 6 0 25 10 42 23
17 12 45 29 61 37 42 20 109 64 113 73 2 4 12 7 22 7 10 0 20 3 22 8 2 4 29
20 61 37 31 16 57 32 57 36 0 4 8 9 18 12 9 4 35 17 57 31 22 14 51 31 65 39
52 28 76 42 93 56 9 8 17 10 17 6 0 -4 8 -1 18 7 9 8 24 18 32 21 8 4 33 18
55 32 22 14 47 28 55 32 8 3 17 9 20 13 3 3 28 17 55 31 28 13 74 40 102 59
l53 35 0 822 0 823 -251 2 -251 3 0 180 1 180 250 3 251 2 0 199 c0 108 2 200
4 202 2 2 77 2 166 -1 l162 -5 -2 -197z m849 -869 c20 -6 44 -15 53 -20 24
-12 95 -11 103 1 3 6 17 10 30 10 13 0 27 5 30 10 3 6 22 10 40 10 28 0 37 -6
50 -30 14 -28 14 -33 -5 -72 -11 -23 -20 -49 -20 -58 0 -9 -4 -20 -9 -26 -5
-5 -12 -31 -14 -58 -3 -26 -10 -53 -16 -59 -14 -14 -15 -489 -2 -503 5 -5 14
-43 20 -84 13 -96 20 -129 34 -160 15 -31 79 -124 89 -128 14 -6 8 -39 -9 -55
-22 -19 -71 -22 -295 -19 l-167 2 -22 31 c-12 17 -18 34 -13 38 5 3 22 24 39
46 16 22 31 42 34 45 4 3 12 19 20 35 7 17 17 38 22 47 5 10 9 29 9 43 0 14 7
42 16 63 12 30 15 82 16 268 0 156 -4 239 -12 253 -6 12 -13 35 -15 51 -5 43
-26 98 -58 155 -15 28 -31 58 -34 68 -3 9 -9 17 -14 17 -17 0 -9 44 13 67 24
26 37 28 87 12z m-2544 -99 c25 -27 72 -50 105 -50 26 0 55 12 115 50 22 14
50 19 108 19 70 1 90 -4 137 -31 8 -5 23 -11 33 -14 9 -4 17 -10 17 -14 0 -5
14 -11 31 -15 26 -6 40 -1 76 24 24 17 48 31 53 31 20 0 48 -39 54 -76 23
-138 17 -204 -19 -204 -6 0 -52 26 -101 59 -49 32 -102 62 -119 66 -65 16
-163 5 -178 -21 -4 -8 -14 -14 -21 -14 -33 0 -46 -46 -46 -166 0 -115 0 -117
28 -141 54 -48 137 -71 211 -58 30 5 45 15 63 41 15 23 30 34 43 32 18 -3 20
-11 21 -76 0 -42 5 -77 12 -84 28 -28 -3 -95 -37 -79 -9 4 -32 16 -52 25 -49
24 -233 25 -258 2 -10 -9 -25 -16 -34 -16 -15 0 -17 -15 -17 -128 0 -115 2
-130 20 -150 42 -45 174 -82 292 -82 84 0 110 11 175 73 34 33 57 48 67 44 21
-8 20 -50 0 -90 -31 -59 -34 -67 -34 -86 0 -11 -4 -23 -10 -26 -5 -3 -10 -13
-10 -22 0 -9 -15 -29 -32 -45 -40 -36 -81 -35 -86 1 -3 22 -7 23 -46 18 -37
-5 -90 -1 -259 20 -26 3 -50 10 -53 14 -13 21 -64 8 -97 -25 -19 -18 -43 -39
-55 -45 -60 -32 -164 7 -170 63 -2 19 2 32 12 38 33 18 76 96 76 135 0 22 5
44 10 49 7 7 9 107 6 295 -4 285 -10 376 -27 394 -5 5 -9 17 -9 26 0 23 -69
79 -97 79 -21 0 -23 5 -23 48 0 97 76 166 125 112z m1795 -2162 c11 -12 20
-27 20 -34 0 -6 7 -25 15 -40 20 -40 20 -176 -1 -238 l-17 -48 -91 90 c-109
107 -130 122 -173 122 -17 0 -35 5 -38 10 -3 6 -37 10 -75 10 -38 0 -72 -4
-75 -10 -3 -5 -17 -10 -30 -10 -13 0 -27 -4 -30 -10 -3 -5 -21 -17 -40 -25
-36 -18 -100 -75 -128 -115 -50 -74 -67 -102 -67 -115 0 -8 -4 -17 -10 -20 -5
-3 -10 -19 -10 -34 0 -15 -6 -33 -12 -40 -9 -8 -13 -52 -13 -146 0 -94 4 -138
13 -147 6 -6 12 -22 12 -35 0 -13 5 -23 10 -23 6 0 10 -9 10 -20 0 -11 3 -20
8 -20 4 0 20 -19 35 -43 41 -60 153 -137 200 -137 13 0 28 -5 34 -11 15 -15
191 -15 206 0 6 6 21 11 33 11 29 0 96 35 167 87 67 50 97 56 97 17 0 -26 -25
-52 -100 -104 -53 -37 -78 -50 -95 -50 -8 0 -15 -4 -15 -10 0 -5 -13 -10 -29
-10 -17 0 -33 -4 -36 -10 -8 -13 -252 -13 -260 0 -3 5 -24 10 -46 10 -21 0
-47 4 -57 9 -9 5 -30 14 -47 21 -97 40 -151 77 -238 165 -28 29 -87 122 -87
138 0 7 -4 17 -9 22 -5 6 -11 28 -15 50 -3 22 -8 57 -12 78 -4 24 -2 37 5 37
7 0 11 23 11 59 0 33 5 63 10 66 6 3 10 19 10 34 0 15 5 32 11 38 6 6 11 17
12 24 2 12 45 79 82 128 50 67 155 149 243 192 103 49 121 55 212 70 130 23
181 25 202 10 32 -22 101 -18 133 7 34 27 39 27 65 0z m413 -358 c63 -13 130
-65 155 -122 23 -52 30 -143 13 -176 -5 -9 -15 -30 -22 -47 -19 -43 -86 -105
-114 -105 -13 0 -27 -4 -30 -10 -8 -13 -102 -13 -110 0 -3 6 -15 10 -26 10
-10 0 -29 6 -42 13 -34 19 -97 88 -97 107 0 9 -5 21 -12 28 -16 16 -17 83 -1
107 7 11 13 30 13 42 0 52 82 153 125 153 11 0 27 5 35 10 8 6 29 8 45 4 17
-3 47 -10 68 -14z m48 -570 c24 -13 27 -75 3 -84 -9 -3 -66 -6 -128 -6 -85 0
-117 4 -134 16 -28 19 -28 41 1 65 18 15 39 18 130 19 60 0 117 -5 128 -10z"/>
<path d="M4257 1262 c-15 -15 -27 -33 -27 -39 0 -6 -6 -16 -14 -22 -12 -10
-26 -60 -26 -96 -1 -27 15 -83 29 -105 58 -90 110 -106 157 -47 14 19 33 51
40 73 16 46 18 130 4 139 -5 3 -10 14 -10 24 0 23 -83 101 -108 101 -10 0 -30
-13 -45 -28z"/>
</g>
</svg>
